<?xml version="1.0" standalone="no"?>
<!DOCTYPE svg PUBLIC "-//W3C//DTD SVG 20010904//EN"
 "http://www.w3.org/TR/2001/REC-SVG-20010904/DTD/svg10.dtd">
<svg version="1.0" xmlns="http://www.w3.org/2000/svg"
 width="700.000000pt" height="700.000000pt" viewBox="0 0 700.000000 700.000000"
 preserveAspectRatio="xMidYMid meet">
<metadata>
Created by potrace 1.11, written by Peter Selinger 2001-2013
</metadata>
<g transform="translate(0.000000,700.000000) scale(0.100000,-0.100000)"
fill="#000000" stroke="none">
<path d="M2320 5375 l-1165 -1165 195 -195 195 -195 840 839 c891 890 873 873
1000 907 102 28 226 13 330 -38 50 -25 118 -88 408 -376 l347 -347 -661 -661
-660 -660 173 -162 173 -162 655 655 655 655 675 -675 c371 -371 678 -675 682
-675 9 0 372 368 377 381 5 15 -3020 3039 -3039 3039 -8 0 -539 -524 -1180
-1165z"/>
<path d="M2675 4310 l-810 -810 810 -810 c445 -445 817 -810 825 -810 8 0 379
364 825 810 l809 809 -159 161 c-88 88 -164 160 -170 160 -5 0 -300 -290 -654
-644 -636 -636 -645 -644 -666 -628 -12 10 -230 213 -485 452 -255 239 -473
443 -485 452 -20 17 -5 32 643 680 364 365 662 668 662 673 0 16 -304 315
-320 315 -8 0 -379 -364 -825 -810z"/>
<path d="M642 3695 c-101 -101 -182 -189 -180 -195 5 -17 3032 -3040 3041
-3037 4 1 531 526 1172 1167 l1165 1165 -192 192 -193 193 -840 -839 c-673
-672 -850 -844 -892 -865 -147 -73 -299 -73 -446 0 -42 21 -279 253 -1242
1215 -655 654 -1195 1189 -1200 1189 -6 -1 -93 -84 -193 -185z"/>
</g>
</svg>
