<?xml version="1.0" standalone="no"?>
<!DOCTYPE svg PUBLIC "-//W3C//DTD SVG 20010904//EN"
 "http://www.w3.org/TR/2001/REC-SVG-20010904/DTD/svg10.dtd">
<svg version="1.0" xmlns="http://www.w3.org/2000/svg"
 width="700.000000pt" height="700.000000pt" viewBox="0 0 700.000000 700.000000"
 preserveAspectRatio="xMidYMid meet">
<metadata>
Created by potrace 1.11, written by Peter Selinger 2001-2013
</metadata>
<g transform="translate(0.000000,700.000000) scale(0.100000,-0.100000)"
fill="#000000" stroke="none">
<path d="M3388 6981 c-31 -10 -79 -35 -105 -54 -68 -50 -3206 -3194 -3231
-3237 -28 -49 -52 -135 -52 -191 0 -70 33 -163 79 -222 22 -29 752 -763 1623
-1633 1263 -1261 1592 -1585 1630 -1602 113 -52 211 -54 319 -6 61 26 143 106
1647 1608 871 870 1600 1604 1622 1631 45 59 80 155 80 223 0 57 -23 142 -52
192 -25 43 -3163 3187 -3231 3237 -93 69 -218 89 -329 54z m1769 -1824 l1603
-1602 0 -55 0 -54 -262 -263 -263 -263 -692 692 -693 693 -779 -779 -779 -779
-33 27 c-17 15 -143 135 -278 267 l-246 239 785 785 785 785 -300 300 c-350
348 -359 355 -505 355 -158 -1 -80 67 -1108 -959 l-912 -911 -290 290 -290
290 1273 1273 1272 1272 55 0 55 0 1602 -1603z m-1594 149 c18 -8 131 -113
252 -235 l220 -221 -785 -785 -785 -785 100 -97 c200 -194 463 -450 593 -578
l132 -130 780 780 780 780 268 -268 267 -267 -905 -904 c-984 -984 -923 -929
-1018 -911 -33 6 -138 107 -942 911 l-905 904 890 891 c490 490 904 900 920
910 35 22 93 25 138 5z m-203 -3787 c44 -19 73 -24 140 -24 159 0 85 -64 1113
963 l907 907 290 -290 290 -290 -1273 -1273 -1272 -1272 -55 0 -55 0 -1602
1603 -1603 1602 0 55 0 54 262 263 263 263 1270 -1268 c1132 -1131 1276 -1271
1325 -1293z"/>
</g>
</svg>
